        <svg xmlns="http://www.w3.org/2000/svg" version="1.1" viewBox="0 0 640 400" matcher="0.5961322018468693"><g viewBox="0 0 640 400" matcher="0.5961322018468693"><g matcher="0.5961322018468693"><g matcher="0.5961322018468693"><g matcher="0.5961322018468693"><svg xmlns="http://www.w3.org/2000/svg" xmlns:xlink="http://www.w3.org/1999/xlink" viewBox="0 0 640 400" data-background-color="#000000" preserveAspectRatio="xMidYMid meet" height="400" width="640"><g id="tight-bounds" transform="matrix(1,0,0,1,190.09588919208346,76.4)"><svg viewBox="0 0 259.8082216158331 247.2" height="247.2" width="259.8082216158331"><g><svg viewBox="0 0 395.52 376.3258275350959" height="247.2" width="259.8082216158331"><g transform="matrix(1,0,0,1,0,274.0029305991628)"><svg viewBox="0 0 395.52 102.32289693593312" height="102.32289693593312" width="395.52"><g id="textblocktransform"><svg viewBox="0 0 395.52 102.32289693593312" height="102.32289693593312" width="395.52" id="textblock"><g><svg viewBox="0 0 395.52 102.32289693593312" height="102.32289693593312" width="395.52"><g transform="matrix(1,0,0,1,0,0)"><svg width="395.52" viewBox="4.150000095367432 -36.5 143.5900115966797 37.150001525878906" height="102.32289693593312" data-palette-color="#c4f649"><path d="M18.1-18.35Q21.95-17.75 23.98-15.48 26-13.2 26-9.4L26-9.4Q26-4.3 22.5-2.15 19 0 12 0L12 0 7.2 0Q6.15 0 5.5-0.6 4.85-1.2 4.8-2.25L4.8-2.25 4.8-28.85Q4.8-30.05 4.65-31.63 4.5-33.2 4.15-34.2L4.15-34.2Q6.25-35.3 11.3-35.3L11.3-35.3Q17.75-35.3 21-33.27 24.25-31.25 24.25-26.8L24.25-26.8Q24.25-23.7 22.65-21.48 21.05-19.25 18.1-18.35L18.1-18.35ZM11.1-33.5Q9.35-33.5 8.85-33.4L8.85-33.4 8.85-19.1 13.05-19.1Q16.15-19.05 18.07-21 20-22.95 20-26.55L20-26.55Q20-30.15 17.93-31.83 15.85-33.5 11.1-33.5L11.1-33.5ZM12.15-1.85Q16.9-1.85 19.28-3.63 21.65-5.4 21.65-9.35L21.65-9.35Q21.65-13.75 19.23-15.5 16.8-17.25 12.15-17.25L12.15-17.25 8.85-17.25 8.85-1.85 12.15-1.85ZM55.4-3.65Q55.95-2.9 55.95-2.1L55.95-2.1Q55.95-1 54.92-0.25 53.9 0.5 52.45 0.5L52.45 0.5Q50.3 0.5 49.2-1 48.1-2.5 48.1-5.7L48.1-5.7 48.1-7.15Q46.45-3.6 43.62-1.53 40.8 0.55 37.45 0.55L37.45 0.55Q34.55 0.55 32.87-1.03 31.2-2.6 31.2-5.25L31.2-5.25Q31.2-8.2 33.45-10.25 35.7-12.3 39.5-13.35L39.5-13.35Q42.85-14.25 46.45-14.25L46.45-14.25Q47.45-14.25 47.9-14.2L47.9-14.2 47.9-15.5Q47.9-19.95 46.42-22.1 44.95-24.25 41.55-24.25L41.55-24.25Q39.35-24.25 37.85-23.3 36.35-22.35 36.35-20.2L36.35-20.2Q36.35-19.05 36.87-18.05 37.4-17.05 38.5-16.65L38.5-16.65Q37.7-15.65 36.1-15.65L36.1-15.65Q34.45-15.65 33.4-16.98 32.35-18.3 32.35-20.05L32.35-20.05Q32.35-22.95 34.9-24.5 37.45-26.05 41.9-26.05L41.9-26.05Q47.05-26.05 49.5-23.4 51.95-20.75 51.95-15.25L51.95-15.25 51.95-5.25Q51.95-2.6 53.75-2.6L53.75-2.6Q54.15-2.6 54.65-2.88 55.15-3.15 55.4-3.65L55.4-3.65ZM39.05-2.25Q41.05-2.25 43.12-3.73 45.2-5.2 46.57-7.6 47.95-10 48-12.6L48-12.6 46.85-12.65Q45.1-12.65 43.3-12.38 41.5-12.1 40.25-11.6L40.25-11.6Q38.05-10.8 36.8-9.4 35.55-8 35.55-6.1L35.55-6.1Q35.55-4.45 36.4-3.35 37.25-2.25 39.05-2.25L39.05-2.25ZM67.65 0.65Q63 0.65 60.67-1.03 58.35-2.7 58.35-5.4L58.35-5.4Q58.35-6.65 58.95-7.43 59.55-8.2 60.85-8.2L60.85-8.2Q61.35-8.2 61.65-8.15L61.65-8.15Q61.5-7.55 61.5-6.95L61.5-6.95Q61.5-6.4 61.55-6.05L61.55-6.05Q61.65-3.85 63.37-2.55 65.1-1.25 68-1.25L68-1.25Q70.85-1.25 72.55-2.25 74.25-3.25 74.25-5.2L74.25-5.2Q74.25-7 72.95-8.05 71.65-9.1 68.85-10.35L68.85-10.35 67.25-11.1Q64.45-12.4 62.97-13.3 61.5-14.2 60.42-15.75 59.35-17.3 59.35-19.65L59.35-19.65Q59.35-22.9 61.9-24.5 64.45-26.1 68.35-26.1L68.35-26.1Q72.45-26.1 74.75-24.78 77.05-23.45 77.05-21.1L77.05-21.1Q77.05-19 75.2-18.8L75.2-18.8Q74.7-18.7 74.55-18.7L74.55-18.7Q74.25-18.7 73.75-18.8L73.75-18.8Q73.85-19.4 73.85-19.8L73.85-19.8Q73.85-20.45 73.7-20.9L73.7-20.9Q73.5-22.55 72.07-23.4 70.65-24.25 68.2-24.25L68.2-24.25Q65.95-24.25 64.5-23.43 63.05-22.6 63.05-20.8L63.05-20.8Q63.05-19.3 63.9-18.23 64.75-17.15 65.92-16.48 67.1-15.8 69.5-14.65L69.5-14.65 70.6-14.15Q73.05-13 74.52-12.13 76-11.25 77.02-9.85 78.05-8.45 78.05-6.5L78.05-6.5Q78.05-3.55 75.6-1.45 73.15 0.65 67.65 0.65L67.65 0.65ZM105.19-3.5Q105.74-2.9 105.74-2.05L105.74-2.05Q105.74-0.95 104.74-0.2 103.74 0.55 102.39 0.55L102.39 0.55Q101.14 0.55 100.12-0.2 99.09-0.95 98.49-2.35L98.49-2.35 94.19-10.85Q91.34-9.8 87.89-8.95L87.89-8.95Q87.89-4.4 87.99-3 88.09-1.6 88.59-0.35L88.59-0.35Q88.09 0.05 87.57 0.3 87.04 0.55 86.19 0.55L86.19 0.55Q84.94 0.55 84.47-0.08 83.99-0.7 83.99-1.85L83.99-1.85 83.94-34.3Q83.94-35.35 84.57-35.93 85.19-36.5 86.24-36.5L86.24-36.5Q87.64-36.5 88.54-35.6L88.54-35.6Q88.19-33.9 88.09-32.55 87.99-31.2 87.94-29.1L87.94-29.1 87.89-27.75 87.84-18.6Q88.99-22 91.59-24.03 94.19-26.05 97.74-26.05L97.74-26.05Q100.69-26.05 102.32-24.5 103.94-22.95 103.94-20.35L103.94-20.35Q103.94-17.5 101.99-15.35 100.04-13.2 96.99-11.8L96.99-11.8Q97.84-11.45 98.84-9.85L98.84-9.85 101.79-4.55Q102.39-3.6 102.77-3.23 103.14-2.85 103.79-2.85L103.79-2.85Q104.64-2.85 105.19-3.5L105.19-3.5ZM87.89-10.75Q93.24-12.3 96.57-14.48 99.89-16.65 99.89-20.1L99.89-20.1Q99.89-21.95 98.94-22.83 97.99-23.7 96.39-23.7L96.39-23.7Q93.89-23.7 91.97-22.03 90.04-20.35 88.97-17.43 87.89-14.5 87.89-10.75L87.89-10.75ZM129.49-6.45Q130.24-6.2 130.24-5.3L130.24-5.3Q130.24-4.8 129.94-3.95L129.94-3.95Q128.99-1.75 126.62-0.55 124.24 0.65 121.04 0.65L121.04 0.65Q115.54 0.65 112.44-2.78 109.34-6.2 109.34-12.55L109.34-12.55Q109.34-18.85 112.42-22.45 115.49-26.05 121.24-26.05L121.24-26.05Q125.39-26.05 127.89-24.18 130.39-22.3 130.39-18.85L130.39-18.85Q130.39-15.15 127.39-13.2 124.39-11.25 119.04-11.25L119.04-11.25Q116.09-11.25 113.64-11.6L113.64-11.6Q113.94-6.55 116.17-4.33 118.39-2.1 121.99-2.1L121.99-2.1Q124.74-2.1 126.74-3.23 128.74-4.35 129.49-6.45L129.49-6.45ZM121.09-24.25Q117.69-24.25 115.67-21.43 113.64-18.6 113.59-13.3L113.59-13.3Q115.99-13.1 117.49-13.05L117.49-13.05Q121.49-13.05 123.82-14.48 126.14-15.9 126.14-19.35L126.14-19.35Q126.14-22 124.69-23.13 123.24-24.25 121.09-24.25L121.09-24.25ZM143.49-25.35Q144.29-25.35 145.61-25.4 146.94-25.45 147.74-25.5L147.74-25.5 147.69-24.4Q147.64-23.9 147.34-23.58 147.04-23.25 146.59-23.25L146.59-23.25 141.44-23.25 141.44-21.35 141.44-5.25Q141.44-3.95 142.04-3.25 142.64-2.55 143.84-2.55L143.84-2.55Q144.59-2.55 145.26-2.83 145.94-3.1 146.19-3.6L146.19-3.6Q146.74-2.85 146.74-2L146.74-2Q146.74-0.85 145.54-0.15 144.34 0.55 142.49 0.55L142.49 0.55Q140.14 0.55 138.79-0.93 137.44-2.4 137.44-5L137.44-5 137.44-23.25 136.74-23.25Q134.69-23.25 133.74-23.1L133.74-23.1 133.79-24.25Q133.84-25.35 134.89-25.35L134.89-25.35 137.44-25.35 137.44-29.8Q137.44-30.85 138.09-31.43 138.74-32 139.79-32L139.79-32Q141.04-32 142.09-31.1L142.09-31.1Q141.54-29.4 141.49-25.35L141.49-25.35 143.49-25.35Z" opacity="1" transform="matrix(1,0,0,1,0,0)" fill="#c4f649" class="wordmark-text-0" data-fill-palette-color="primary" id="text-0"/></svg></g></svg></g></svg></g></svg></g><g transform="matrix(1,0,0,1,84.91451491746594,0)"><svg viewBox="0 0 225.6909701650681 225.6909701650681" height="225.6909701650681" width="225.6909701650681"><g><svg/></g><g id="icon-0"><svg viewBox="0 0 225.6909701650681 225.6909701650681" height="225.6909701650681" width="225.6909701650681"><g><path d="M0 112.845c0-62.323 50.523-112.845 112.845-112.845 62.323 0 112.845 50.523 112.846 112.845 0 62.323-50.523 112.845-112.846 112.846-62.323 0-112.845-50.523-112.845-112.846zM112.845 216.463c57.227 0 103.618-46.391 103.618-103.618 0-57.227-46.391-103.618-103.618-103.617-57.227 0-103.618 46.391-103.617 103.617 0 57.227 46.391 103.618 103.617 103.618z" data-fill-palette-color="tertiary" fill="#c4f649" stroke="transparent"/></g><g transform="matrix(1,0,0,1,49.04760063903468,66.75108579931434)"><svg viewBox="0 0 127.59576888699875 92.18879856643943" height="92.18879856643943" width="127.59576888699875"><g><svg xmlns="http://www.w3.org/2000/svg" xmlns:xlink="http://www.w3.org/1999/xlink" version="1.1" x="0" y="0" viewBox="14.064000129699707 24.035999298095703 71.87199401855469 51.92799758911133" enable-background="new 0 0 100 100" xml:space="preserve" height="92.18879856643943" width="127.59576888699875" class="icon-b-0" data-fill-palette-color="accent" id="b-0"><g display="none" fill="#c4f649" data-fill-palette-color="accent"><path display="inline" d="M75.186 68.916S69.104 69.338 62.658 69.697C60.26 67.011 60.588 60.258 60.891 57.093 63.4 54.327 65.62 50.814 66.935 46.829 67.071 47.052 67.225 47.243 67.429 47.352 69.677 48.59 69.118 43.528 69.226 41.393 69.337 39.256 70.914 36.446 69.226 36.446 68.77 36.446 68.436 36.514 68.179 36.61 67.868 24.405 64.949 14.893 50.225 14.893 34.547 14.893 32.443 24.532 32.252 36.856 32.005 36.643 31.567 36.446 30.773 36.446 29.085 36.446 30.659 39.257 30.773 41.393 30.885 43.528 30.325 48.59 32.572 47.352 32.902 47.168 33.129 46.809 33.283 46.348 34.485 50.416 36.612 54.014 39.079 56.86 39.391 59.905 39.8 66.921 37.353 69.68 30.875 69.326 24.812 68.914 24.812 68.914 18.851 68.914 14.017 73.746 14.017 79.707V85.103H85.982V79.707C85.982 73.748 81.146 68.916 75.186 68.916" fill="#c4f649" data-fill-palette-color="accent"/></g><g fill="#c4f649" data-fill-palette-color="accent"><polygon points="52.996,40.028 52.996,24.036 47.006,24.036 47.006,40.028 14.064,40.028 26.045,75.964 73.957,75.964    85.936,40.028  " fill="#c4f649" data-fill-palette-color="accent"/></g><g display="none" fill="#c4f649" data-fill-palette-color="accent"><path display="inline" d="M20.015 14.018V85.983H79.986V14.018zM35.008 75.988H29.013V69.988H35.008zM35.008 63.994H29.013V57.996H35.008zM35.008 51.998H29.013V46.002H35.008zM47.001 75.988H41.007V69.988H47.001zM47.001 63.994H41.007V57.996H47.001zM47.001 51.998H41.007V46.002H47.001zM58.997 75.988H53.002V69.988H58.997zM58.997 63.994H53.002V57.996H58.997zM58.997 51.998H53.002V46.002H58.997zM70.991 75.988H64.992V69.988H70.991zM70.991 63.994H64.992V57.996H70.991zM70.991 51.998H64.992V46.002H70.991zM73.99 36.008H26.016V24.014H73.99z" fill="#c4f649" data-fill-palette-color="accent"/></g><g display="none" fill="#c4f649" data-fill-palette-color="accent"><polygon display="inline" points="50,17.02 14.018,47.074 20.1,47.074 20.1,82.984 44.002,82.984 44.002,64.994 55.996,64.994    55.996,82.984 80.07,82.984 80.07,47.074 85.982,47.074  " fill="#c4f649" data-fill-palette-color="accent"/><polygon display="inline" points="77.986,17.016 65.992,17.016 65.992,25.037 77.986,35.008  " fill="#c4f649" data-fill-palette-color="accent"/></g></svg></g></svg></g></svg></g></svg></g><g/></svg></g><defs/></svg><rect width="259.8082216158331" height="247.2" fill="none" stroke="none" visibility="hidden"/></g></svg></g></g></g></g><rect width="271.7900861601413" height="79.21363962955496" x="185.10495215155777" y="251.3863951002294" rx="2.5" ry="2.5" fill="transparent" class="logo-element-hover-target"/><rect width="160.25132145101497" height="160.25137241982947" x="240.87436636163" y="71.40000390746397" rx="2.5" ry="2.5" fill="transparent" class="logo-element-hover-target"/></svg>
