<?xml version="1.0" encoding="UTF-8"?>
<svg id="Layer_1" data-name="Layer 1" xmlns="http://www.w3.org/2000/svg" xmlns:xlink="http://www.w3.org/1999/xlink" viewBox="0 0 662 629.87">
  <defs>
    <style>
      .cls-1 {
        fill: #2a9245;
      }

      .cls-2 {
        clip-path: url(#clippath-2);
      }

      .cls-3 {
        clip-path: url(#clippath-1);
      }

      .cls-4 {
        clip-path: url(#clippath-4);
      }

      .cls-5 {
        clip-path: url(#clippath);
      }

      .cls-6 {
        fill: none;
      }

      .cls-7 {
        clip-path: url(#clippath-3);
      }
    </style>
    <clipPath id="clippath">
      <rect class="cls-6" width="662" height="629.87"/>
    </clipPath>
    <clipPath id="clippath-1">
      <rect class="cls-6" x="23" y="13" width="616.01" height="616.01"/>
    </clipPath>
    <clipPath id="clippath-2">
      <rect class="cls-6" x="23" y="13" width="616.01" height="616.01"/>
    </clipPath>
    <clipPath id="clippath-3">
      <rect class="cls-6" x="156.87" y="195.19" width="348.26" height="251.62"/>
    </clipPath>
    <clipPath id="clippath-4">
      <rect class="cls-6" x="156.87" y="195.19" width="348.26" height="251.62"/>
    </clipPath>
  </defs>
  <g class="cls-5">
    <g class="cls-3">
      <g class="cls-2">
        <g>
          <path class="cls-1" d="m23,321C23,150.89,160.9,13,331,13s308,137.9,308.01,308c0,170.11-137.9,308-308.01,308-170.11,0-308-137.9-308-308Zm308,282.82c156.2,0,282.82-126.62,282.82-282.82S487.2,38.18,331,38.18c-156.2,0-282.82,126.62-282.81,282.82,0,156.2,126.62,282.82,282.81,282.82Z"/>
          <g class="cls-7">
            <g class="cls-4">
              <path class="cls-1" d="m345.52,272.68v-77.49h-29.03v77.49h-159.62l58.05,174.13h232.16l58.04-174.13h-159.61Z"/>
            </g>
          </g>
        </g>
      </g>
    </g>
  </g>
</svg>