<svg width="662" height="630" viewBox="0 0 662 630" fill="none" xmlns="http://www.w3.org/2000/svg">
<g clip-path="url(#clip0_25_195)">
<g clip-path="url(#clip1_25_195)">
<g clip-path="url(#clip2_25_195)">
<g clip-path="url(#clip3_25_195)">
<g clip-path="url(#clip4_25_195)">
<g clip-path="url(#clip5_25_195)">
<path d="M64.3324 542.283C76.1648 544.127 85.2004 548.538 91.4394 555.514C97.6475 562.521 100.752 571.864 100.752 583.543C100.752 599.217 95.3732 610.358 84.6165 616.966C73.8598 623.573 57.7247 626.877 36.2112 626.877H14.0831C10.8561 626.877 8.24371 625.955 6.24603 624.111C4.24835 622.267 3.17268 619.732 3.01901 616.505V493.878C3.01901 490.19 2.78851 485.918 2.32751 481.062C1.8665 476.237 1.09816 472.288 0.0224915 469.214C6.47653 465.834 17.4638 464.143 32.9842 464.143C52.8073 464.143 67.7131 467.263 77.7015 473.502C87.6899 479.71 92.6841 489.652 92.6841 503.329C92.6841 512.856 90.2254 521.031 85.308 527.854C80.3907 534.708 73.3988 539.517 64.3324 542.283ZM32.0622 472.441C26.6838 472.441 23.2263 472.595 21.6896 472.902V538.826H41.0517C50.5791 538.979 58.2932 536.06 64.1941 530.067C70.1257 524.074 73.0914 515.545 73.0914 504.481C73.0914 493.417 69.9105 485.303 63.5487 480.14C57.1561 475.008 46.6606 472.441 32.0622 472.441ZM36.9027 618.349C51.5011 618.349 62.4576 615.614 69.7722 610.143C77.0561 604.703 80.698 595.913 80.698 583.774C80.698 570.251 76.9792 560.8 69.5417 555.422C62.0735 550.044 51.1938 547.354 36.9027 547.354H21.6896V618.349H36.9027ZM236.286 610.051C237.977 612.356 238.822 614.738 238.822 617.196C238.822 620.577 237.239 623.42 234.074 625.725C230.939 628.03 227.143 629.182 222.687 629.182C216.079 629.182 211.085 626.877 207.704 622.267C204.324 617.657 202.633 610.435 202.633 600.6V593.916C197.562 604.826 190.678 613.462 181.98 619.824C173.313 626.217 163.832 629.413 153.536 629.413C144.624 629.413 137.586 626.985 132.423 622.129C127.29 617.304 124.724 610.819 124.724 602.675C124.724 593.608 128.181 585.925 135.096 579.625C142.011 573.324 151.308 568.56 162.987 565.333C173.283 562.567 183.963 561.184 195.027 561.184C198.1 561.184 200.328 561.261 201.711 561.415V555.422C201.711 541.745 199.437 531.603 194.888 524.996C190.371 518.388 182.887 515.084 172.438 515.084C165.676 515.084 159.99 516.544 155.38 519.464C150.77 522.383 148.465 527.147 148.465 533.755C148.465 537.289 149.264 540.593 150.863 543.666C152.491 546.74 154.996 548.891 158.377 550.12C155.918 553.194 152.23 554.73 147.313 554.73C142.242 554.73 138.093 552.687 134.866 548.599C131.639 544.542 130.025 539.825 130.025 534.446C130.025 525.534 133.944 518.695 141.781 513.932C149.618 509.168 160.375 506.786 174.051 506.786C189.879 506.786 201.558 510.858 209.087 519.003C216.617 527.147 220.382 539.671 220.382 556.574V602.675C220.382 610.819 223.148 614.891 228.68 614.891C229.909 614.891 231.292 614.461 232.829 613.6C234.366 612.771 235.518 611.587 236.286 610.051ZM160.912 616.505C167.059 616.505 173.313 614.231 179.675 609.682C186.068 605.164 191.369 599.217 195.58 591.841C199.821 584.465 202.019 576.782 202.172 568.791L196.871 568.56C191.492 568.56 186.037 568.975 180.505 569.805C174.973 570.666 170.286 571.864 166.445 573.401C159.683 575.86 154.382 579.24 150.54 583.543C146.698 587.846 144.777 592.917 144.777 598.756C144.777 603.827 146.084 608.053 148.696 611.434C151.308 614.814 155.38 616.505 160.912 616.505ZM292.759 629.874C278.468 629.874 267.742 627.292 260.581 622.129C253.451 616.997 249.886 610.281 249.886 601.983C249.886 598.142 250.808 595.022 252.652 592.625C254.496 590.258 257.416 589.075 261.411 589.075C262.948 589.075 264.177 589.152 265.099 589.306C264.638 591.15 264.408 592.994 264.408 594.838C264.408 596.528 264.484 597.911 264.638 598.987C264.945 605.748 267.742 611.126 273.028 615.122C278.345 619.117 285.46 621.115 294.373 621.115C303.132 621.115 310.124 619.578 315.348 616.505C320.573 613.431 323.185 608.898 323.185 602.905C323.185 597.373 321.188 592.994 317.192 589.767C313.197 586.54 306.897 583.005 298.291 579.164L290.915 575.706C282.31 571.711 275.733 568.33 271.184 565.564C266.667 562.798 262.748 559.033 259.429 554.269C256.14 549.506 254.496 543.513 254.496 536.29C254.496 526.302 258.415 518.849 266.252 513.932C274.089 509.014 284 506.556 295.986 506.556C308.587 506.556 318.422 508.584 325.49 512.641C332.559 516.728 336.094 522.383 336.094 529.606C336.094 536.06 333.251 539.594 327.565 540.209C326.028 540.516 325.029 540.67 324.568 540.67C323.646 540.67 322.417 540.516 320.88 540.209C321.188 538.365 321.341 536.828 321.341 535.599C321.341 533.601 321.111 531.911 320.65 530.528C320.035 525.457 317.53 521.615 313.136 519.003C308.771 516.39 302.824 515.084 295.295 515.084C288.38 515.084 282.694 516.344 278.238 518.864C273.781 521.415 271.553 525.457 271.553 530.989C271.553 535.599 272.859 539.548 275.472 542.837C278.084 546.156 281.188 548.845 284.784 550.904C288.41 552.994 293.912 555.806 301.288 559.34L306.359 561.645C313.889 565.18 319.912 568.284 324.43 570.958C328.979 573.662 332.82 577.166 335.955 581.469C339.121 585.771 340.704 590.919 340.704 596.912C340.704 605.979 336.939 613.739 329.409 620.193C321.879 626.647 309.663 629.874 292.759 629.874ZM465.82 610.742C467.51 612.586 468.355 614.814 468.355 617.427C468.355 620.807 466.819 623.65 463.745 625.955C460.672 628.26 457.061 629.413 452.912 629.413C449.07 629.413 445.582 628.26 442.447 625.955C439.281 623.65 436.777 620.346 434.933 616.044L415.109 576.859C406.35 580.086 396.669 583.005 386.066 585.618C386.066 599.601 386.22 608.745 386.527 613.047C386.835 617.35 387.757 621.422 389.293 625.264C387.757 626.493 386.189 627.492 384.591 628.26C382.962 629.029 380.842 629.413 378.229 629.413C374.388 629.413 371.744 628.445 370.3 626.509C368.825 624.603 368.087 621.883 368.087 618.349L367.857 468.753C367.857 465.526 368.825 463.022 370.761 461.239C372.666 459.487 375.233 458.611 378.46 458.611C382.762 458.611 386.297 459.994 389.063 462.76C387.987 467.985 387.296 472.672 386.988 476.821C386.681 480.97 386.45 486.271 386.297 492.726L386.066 498.949L385.836 541.131C389.37 530.681 395.133 522.337 403.123 516.098C411.114 509.89 420.565 506.786 431.475 506.786C440.541 506.786 447.579 509.168 452.589 513.932C457.568 518.695 460.057 525.073 460.057 533.063C460.057 541.822 457.061 549.506 451.068 556.113C445.075 562.721 437.391 568.176 428.017 572.479C430.63 573.555 433.473 576.551 436.546 581.469L450.146 605.902C451.99 608.821 453.496 610.85 454.663 611.987C455.801 613.155 457.368 613.739 459.366 613.739C461.978 613.739 464.129 612.74 465.82 610.742ZM386.066 577.32C402.509 572.556 415.847 566.824 426.081 560.124C436.285 553.455 441.387 544.819 441.387 534.216C441.387 528.53 439.927 524.335 437.007 521.63C434.087 518.957 430.169 517.62 425.251 517.62C417.568 517.62 410.776 520.186 404.875 525.318C398.944 530.482 394.334 537.55 391.045 546.525C387.726 555.529 386.066 565.794 386.066 577.32ZM577.843 597.143C580.148 597.911 581.301 599.678 581.301 602.444C581.301 603.981 580.84 606.055 579.918 608.668C576.998 615.429 571.897 620.654 564.613 624.342C557.298 628.03 548.723 629.874 538.889 629.874C521.985 629.874 508.77 624.603 499.242 614.061C489.715 603.551 484.951 588.537 484.951 569.021C484.951 549.659 489.684 534.446 499.15 523.382C508.585 512.318 522.139 506.786 539.811 506.786C552.565 506.786 562.784 509.66 570.467 515.407C578.151 521.185 581.992 529.375 581.992 539.978C581.992 551.35 577.382 560.032 568.162 566.025C558.942 572.018 546.111 575.015 529.669 575.015C520.602 575.015 512.304 574.477 504.774 573.401C505.696 588.921 509.584 600.093 516.438 606.916C523.261 613.769 532.204 617.196 543.268 617.196C551.72 617.196 559.019 615.46 565.166 611.987C571.313 608.545 575.538 603.597 577.843 597.143ZM539.119 515.084C528.67 515.084 520.341 519.418 514.133 528.084C507.894 536.782 504.698 549.275 504.544 565.564C511.92 566.179 517.913 566.563 522.523 566.716C534.816 566.716 544.544 564.519 551.705 560.124C558.835 555.76 562.4 548.276 562.4 537.673C562.4 529.529 560.172 523.72 555.715 520.247C551.259 516.805 545.727 515.084 539.119 515.084ZM642.384 510.013C644.843 510.013 648.1 509.936 652.157 509.783C656.245 509.629 659.518 509.475 661.977 509.322L661.746 514.393C661.592 515.929 661.054 517.189 660.132 518.173C659.21 519.187 658.058 519.694 656.675 519.694H632.933V528.453V602.675C632.933 606.67 633.855 609.743 635.699 611.895C637.543 614.046 640.309 615.122 643.997 615.122C646.302 615.122 648.484 614.691 650.544 613.831C652.633 613.001 654.063 611.818 654.831 610.281C656.521 612.586 657.366 615.045 657.366 617.657C657.366 621.192 655.522 624.034 651.834 626.186C648.146 628.337 643.46 629.413 637.774 629.413C630.551 629.413 624.866 627.139 620.717 622.59C616.568 618.072 614.493 611.818 614.493 603.827V519.694H611.266C604.966 519.694 600.356 519.925 597.436 520.386L597.667 515.084C597.82 511.703 599.511 510.013 602.738 510.013H614.493V489.499C614.493 486.271 615.492 483.767 617.49 481.984C619.487 480.232 622.1 479.356 625.327 479.356C629.168 479.356 632.703 480.739 635.93 483.505C634.239 488.73 633.317 497.566 633.164 510.013H642.384Z" fill="#2A9245"/>
</g>
</g>
</g>
</g>
<g clip-path="url(#clip6_25_195)">
<g clip-path="url(#clip7_25_195)">
<path d="M142.125 188.874C142.125 84.561 226.688 0 330.999 0C435.312 0 519.873 84.5627 519.875 188.874C519.875 293.187 435.312 377.748 330.999 377.749C226.686 377.749 142.125 293.187 142.125 188.874ZM330.999 362.304C426.783 362.304 504.429 284.657 504.429 188.874C504.429 93.0904 426.783 15.4437 330.999 15.4453C235.216 15.4453 157.569 93.0921 157.571 188.874C157.571 284.657 235.217 362.304 330.999 362.304Z" fill="#2A9245"/>
<g clip-path="url(#clip8_25_195)">
<g clip-path="url(#clip9_25_195)">
<path d="M339.902 159.244V111.724H322.103V159.244H224.219L259.819 266.025H402.187L437.781 159.244H339.902Z" fill="#2A9245"/>
</g>
</g>
</g>
</g>
</g>
</g>
<defs>
<clipPath id="clip0_25_195">
<rect width="662" height="629.874" fill="white"/>
</clipPath>
<clipPath id="clip1_25_195">
<rect width="662" height="629.874" fill="white"/>
</clipPath>
<clipPath id="clip2_25_195">
<rect width="662" height="171.263" fill="white" transform="translate(0 458.611)"/>
</clipPath>
<clipPath id="clip3_25_195">
<rect width="662" height="171.263" fill="white" transform="translate(0 458.611)"/>
</clipPath>
<clipPath id="clip4_25_195">
<rect width="662" height="171.263" fill="white" transform="translate(0 458.611)"/>
</clipPath>
<clipPath id="clip5_25_195">
<rect width="662" height="171.263" fill="white" transform="translate(0 458.611)"/>
</clipPath>
<clipPath id="clip6_25_195">
<rect width="377.749" height="377.749" fill="white" transform="translate(142.125)"/>
</clipPath>
<clipPath id="clip7_25_195">
<rect width="377.749" height="377.749" fill="white" transform="translate(142.125)"/>
</clipPath>
<clipPath id="clip8_25_195">
<rect width="213.563" height="154.301" fill="white" transform="translate(224.219 111.724)"/>
</clipPath>
<clipPath id="clip9_25_195">
<rect width="213.563" height="154.301" fill="white" transform="translate(224.219 111.724)"/>
</clipPath>
</defs>
</svg>
